<svg id="Layer_1" data-name="Layer 1" xmlns="http://www.w3.org/2000/svg" viewBox="0 0 245 245">
<defs><style>.cls-1{fill:#f1be63;}</style></defs>
<title>logo</title>
<path class="cls-1" d="M465.25,267h-85a15,15,0,0,0-15,15v85a15,15,0,0,0,15,15h85a15,15,0,0,0,15-15V282A15,15,0,0,0,465.25,267Zm-51.34,18.66a12.51,12.51,0,1,1-3.66,8.84A12.49,12.49,0,0,1,413.91,285.66Zm17.68,77.68a12.5,12.5,0,1,1,3.66-8.84A12.49,12.49,0,0,1,431.59,363.34ZM460.25,337h-75V312h75Z" transform="translate(-235.25 -137)"/>
<path class="cls-1" d="M465.25,252h-85a15,15,0,0,1-15-15V152a15,15,0,0,1,15-15h85a15,15,0,0,1,15,15v85A15,15,0,0,1,465.25,252Zm-5-45V182h-75v25Z" transform="translate(-235.25 -137)"/>
<path class="cls-1" d="M335.25,252h-85a15,15,0,0,1-15-15V152a15,15,0,0,1,15-15h85a15,15,0,0,1,15,15v85A15,15,0,0,1,335.25,252Zm-5-70h-25V157h-25v25h-25v25h25v25h25V207h25Z" transform="translate(-235.25 -137)"/>
<path class="cls-1" d="M335.25,382h-85a15,15,0,0,1-15-15V282a15,15,0,0,1,15-15h85a15,15,0,0,1,15,15v85A15,15,0,0,1,335.25,382Zm-7.14-39.82L310.43,324.5l17.68-17.68-17.68-17.68-17.68,17.68-17.68-17.68-17.68,17.68,17.68,17.68-17.68,17.68,17.68,17.68,17.68-17.68,17.68,17.68Z" transform="translate(-235.25 -137)"/>
</svg>